<svg xmlns="http://www.w3.org/2000/svg" xmlns:xlink="http://www.w3.org/1999/xlink" version="1.1" width="256" height="256" viewBox="0 0 256 256" xml:space="preserve">

<defs>
</defs>
<g style="stroke: none; stroke-width: 0; stroke-dasharray: none; stroke-linecap: butt; stroke-linejoin: miter; stroke-miterlimit: 10; fill: none; fill-rule: nonzero; opacity: 1;" transform="translate(1.4065934065934016 1.4065934065934016) scale(2.81 2.81)" >
	<path d="M 9.613 73.639 v 12.984 c 0 1.313 1.064 2.377 2.377 2.377 h 10.481 c 1.313 0 2.377 -1.064 2.377 -2.377 V 73.639 H 9.613 z" style="stroke: none; stroke-width: 1; stroke-dasharray: none; stroke-linecap: butt; stroke-linejoin: miter; stroke-miterlimit: 10; fill: rgb(47,72,89); fill-rule: nonzero; opacity: 1;" transform=" matrix(1 0 0 1 0 0) " stroke-linecap="round" />
	<path d="M 65.152 73.639 v 12.984 c 0 1.313 1.064 2.377 2.377 2.377 H 78.01 c 1.313 0 2.377 -1.064 2.377 -2.377 V 73.639 H 65.152 z" style="stroke: none; stroke-width: 1; stroke-dasharray: none; stroke-linecap: butt; stroke-linejoin: miter; stroke-miterlimit: 10; fill: rgb(47,72,89); fill-rule: nonzero; opacity: 1;" transform=" matrix(1 0 0 1 0 0) " stroke-linecap="round" />
	<path d="M 80.78 73.986 l 0.434 -7.842 c 0.28 -5.066 -1.56 -10.02 -5.08 -13.675 l -4.011 -4.165 l -4.738 -11.837 c -0.692 -1.728 -2.263 -2.963 -4.111 -3.181 c -12.182 -1.44 -24.365 -1.44 -36.547 0 c -1.848 0.219 -3.419 1.454 -4.111 3.181 l -4.738 11.837 l -4.011 4.166 c -3.519 3.655 -5.36 8.609 -5.08 13.675 l 0.434 7.842 c 0.221 3.989 3.519 7.111 7.515 7.111 h 56.531 C 77.261 81.097 80.559 77.975 80.78 73.986 z" style="stroke: none; stroke-width: 1; stroke-dasharray: none; stroke-linecap: butt; stroke-linejoin: miter; stroke-miterlimit: 10; fill: rgb(247,62,62); fill-rule: nonzero; opacity: 1;" transform=" matrix(1 0 0 1 0 0) " stroke-linecap="round" />
	<path d="M 72.122 48.304 l -4.738 -11.837 c -0.692 -1.728 -2.263 -2.963 -4.111 -3.181 c -12.182 -1.44 -24.365 -1.44 -36.547 0 c -1.848 0.219 -3.419 1.454 -4.111 3.181 l -4.738 11.837 l 0 0 C 35.959 47.344 54.041 47.344 72.122 48.304 L 72.122 48.304 z" style="stroke: none; stroke-width: 1; stroke-dasharray: none; stroke-linecap: butt; stroke-linejoin: miter; stroke-miterlimit: 10; fill: rgb(47,72,89); fill-rule: nonzero; opacity: 1;" transform=" matrix(1 0 0 1 0 0) " stroke-linecap="round" />
	<path d="M 72.071 49.3 c -17.962 -0.955 -36.179 -0.955 -54.143 0 l -0.106 -1.998 c 18.034 -0.956 36.321 -0.956 54.354 0 L 72.071 49.3 z" style="stroke: none; stroke-width: 1; stroke-dasharray: none; stroke-linecap: butt; stroke-linejoin: miter; stroke-miterlimit: 10; fill: rgb(0,0,0); fill-rule: nonzero; opacity: 1;" transform=" matrix(1 0 0 1 0 0) " stroke-linecap="round" />
	<path d="M 22.469 90 H 11.987 c -1.862 0 -3.377 -1.515 -3.377 -3.377 V 76.009 c 0 -0.553 0.448 -1 1 -1 s 1 0.447 1 1 v 10.614 c 0 0.759 0.618 1.377 1.377 1.377 h 10.482 c 0.759 0 1.377 -0.618 1.377 -1.377 v -5.526 c 0 -0.553 0.448 -1 1 -1 s 1 0.447 1 1 v 5.526 C 25.846 88.485 24.331 90 22.469 90 z" style="stroke: none; stroke-width: 1; stroke-dasharray: none; stroke-linecap: butt; stroke-linejoin: miter; stroke-miterlimit: 10; fill: rgb(0,0,0); fill-rule: nonzero; opacity: 1;" transform=" matrix(1 0 0 1 0 0) " stroke-linecap="round" />
	<path d="M 78.013 90 H 67.53 c -1.862 0 -3.377 -1.515 -3.377 -3.377 v -5.304 c 0 -0.553 0.447 -1 1 -1 s 1 0.447 1 1 v 5.304 c 0 0.759 0.618 1.377 1.377 1.377 h 10.482 c 0.759 0 1.377 -0.618 1.377 -1.377 V 76 c 0 -0.553 0.447 -1 1 -1 s 1 0.447 1 1 v 10.623 C 81.39 88.485 79.875 90 78.013 90 z" style="stroke: none; stroke-width: 1; stroke-dasharray: none; stroke-linecap: butt; stroke-linejoin: miter; stroke-miterlimit: 10; fill: rgb(0,0,0); fill-rule: nonzero; opacity: 1;" transform=" matrix(1 0 0 1 0 0) " stroke-linecap="round" />
	<path d="M 73.268 82.097 H 16.732 c -4.524 0 -8.264 -3.539 -8.514 -8.056 l -0.434 -7.843 c -0.294 -5.326 1.659 -10.584 5.358 -14.425 l 3.876 -4.025 l 4.667 -11.657 c 0.834 -2.085 2.72 -3.542 4.921 -3.803 c 12.205 -1.442 24.58 -1.442 36.784 0 c 2.202 0.261 4.088 1.718 4.923 3.803 l 4.665 11.657 l 3.877 4.025 c 3.699 3.841 5.652 9.099 5.357 14.425 l -0.434 7.843 C 81.531 78.558 77.791 82.097 73.268 82.097 z M 45 33.206 c -6.067 0 -12.132 0.356 -18.158 1.068 c -1.473 0.174 -2.737 1.155 -3.3 2.56 l -4.811 12.02 l -4.147 4.307 c -3.315 3.442 -5.065 8.154 -4.802 12.928 l 0.434 7.842 c 0.191 3.458 3.054 6.167 6.517 6.167 h 56.535 c 3.463 0 6.325 -2.709 6.517 -6.167 l 0.434 -7.843 c 0.264 -4.772 -1.486 -9.483 -4.803 -12.927 l -4.146 -4.307 l -0.073 -0.181 l -4.738 -11.839 c -0.562 -1.405 -1.826 -2.386 -3.3 -2.56 C 57.134 33.562 51.065 33.206 45 33.206 z" style="stroke: none; stroke-width: 1; stroke-dasharray: none; stroke-linecap: butt; stroke-linejoin: miter; stroke-miterlimit: 10; fill: rgb(0,0,0); fill-rule: nonzero; opacity: 1;" transform=" matrix(1 0 0 1 0 0) " stroke-linecap="round" />
	<path d="M 20.997 75.67 h -2.994 c -0.552 0 -1 -0.447 -1 -1 s 0.448 -1 1 -1 h 2.994 c 0.552 0 1 0.447 1 1 S 21.549 75.67 20.997 75.67 z" style="stroke: none; stroke-width: 1; stroke-dasharray: none; stroke-linecap: butt; stroke-linejoin: miter; stroke-miterlimit: 10; fill: rgb(0,0,0); fill-rule: nonzero; opacity: 1;" transform=" matrix(1 0 0 1 0 0) " stroke-linecap="round" />
	<path d="M 72.003 75.67 h -3.006 c -0.553 0 -1 -0.447 -1 -1 s 0.447 -1 1 -1 h 3.006 c 0.553 0 1 0.447 1 1 S 72.556 75.67 72.003 75.67 z" style="stroke: none; stroke-width: 1; stroke-dasharray: none; stroke-linecap: butt; stroke-linejoin: miter; stroke-miterlimit: 10; fill: rgb(0,0,0); fill-rule: nonzero; opacity: 1;" transform=" matrix(1 0 0 1 0 0) " stroke-linecap="round" />
	<path d="M 55.361 75.109 H 34.639 c -0.892 0 -1.708 -0.504 -2.107 -1.302 l -0.645 -1.29 c -0.783 -1.566 0.356 -3.408 2.107 -3.408 h 22.011 c 1.751 0 2.89 1.842 2.107 3.408 l -0.645 1.29 C 57.068 74.605 56.253 75.109 55.361 75.109 z" style="stroke: none; stroke-width: 1; stroke-dasharray: none; stroke-linecap: butt; stroke-linejoin: miter; stroke-miterlimit: 10; fill: rgb(47,72,89); fill-rule: nonzero; opacity: 1;" transform=" matrix(1 0 0 1 0 0) " stroke-linecap="round" />
	<path d="M 55.361 76.109 H 34.639 c -1.279 0 -2.429 -0.711 -3.001 -1.854 l -0.645 -1.29 c -0.523 -1.048 -0.469 -2.269 0.147 -3.265 c 0.616 -0.996 1.683 -1.591 2.854 -1.591 h 22.012 c 1.172 0 2.238 0.595 2.854 1.591 c 0.615 0.996 0.67 2.217 0.146 3.265 l -0.645 1.29 C 57.789 75.398 56.64 76.109 55.361 76.109 z M 33.994 70.109 c -0.48 0 -0.9 0.234 -1.152 0.643 s -0.274 0.889 -0.06 1.318 l 0.645 1.29 c 0.231 0.462 0.695 0.749 1.212 0.749 h 20.722 c 0.517 0 0.98 -0.287 1.212 -0.749 l 0.645 -1.29 c 0.215 -0.43 0.193 -0.91 -0.059 -1.318 c -0.253 -0.408 -0.673 -0.643 -1.153 -0.643 H 33.994 z" style="stroke: none; stroke-width: 1; stroke-dasharray: none; stroke-linecap: butt; stroke-linejoin: miter; stroke-miterlimit: 10; fill: rgb(0,0,0); fill-rule: nonzero; opacity: 1;" transform=" matrix(1 0 0 1 0 0) " stroke-linecap="round" />
	<path d="M 17.351 61.273 l 7.801 2.071 c 1.285 0.341 2.18 1.504 2.18 2.834 v 0 c 0 1.619 -1.313 2.932 -2.932 2.932 h -7.801 c -1.619 0 -2.932 -1.313 -2.932 -2.932 v -2.071 C 13.667 62.181 15.491 60.779 17.351 61.273 z" style="stroke: none; stroke-width: 1; stroke-dasharray: none; stroke-linecap: butt; stroke-linejoin: miter; stroke-miterlimit: 10; fill: rgb(230,246,255); fill-rule: nonzero; opacity: 1;" transform=" matrix(1 0 0 1 0 0) " stroke-linecap="round" />
	<path d="M 72.649 61.273 l -7.801 2.071 c -1.285 0.341 -2.18 1.504 -2.18 2.834 v 0 c 0 1.619 1.313 2.932 2.932 2.932 h 7.801 c 1.619 0 2.932 -1.313 2.932 -2.932 v -2.071 C 76.333 62.181 74.509 60.779 72.649 61.273 z" style="stroke: none; stroke-width: 1; stroke-dasharray: none; stroke-linecap: butt; stroke-linejoin: miter; stroke-miterlimit: 10; fill: rgb(230,246,255); fill-rule: nonzero; opacity: 1;" transform=" matrix(1 0 0 1 0 0) " stroke-linecap="round" />
	<path d="M 24.401 70.109 h -7.802 c -2.168 0 -3.932 -1.765 -3.932 -3.933 v -2.07 c 0 -1.23 0.56 -2.366 1.535 -3.117 c 0.976 -0.75 2.217 -1 3.406 -0.684 l 7.801 2.07 c 1.722 0.458 2.924 2.021 2.924 3.801 C 28.333 68.345 26.569 70.109 24.401 70.109 z M 16.594 62.173 c -0.419 0 -0.83 0.138 -1.173 0.402 c -0.479 0.368 -0.754 0.927 -0.754 1.531 v 2.07 c 0 1.065 0.867 1.933 1.932 1.933 h 7.802 c 1.065 0 1.932 -0.867 1.932 -1.933 c 0 -0.875 -0.591 -1.643 -1.437 -1.867 l -7.801 -2.07 C 16.929 62.195 16.761 62.173 16.594 62.173 z" style="stroke: none; stroke-width: 1; stroke-dasharray: none; stroke-linecap: butt; stroke-linejoin: miter; stroke-miterlimit: 10; fill: rgb(0,0,0); fill-rule: nonzero; opacity: 1;" transform=" matrix(1 0 0 1 0 0) " stroke-linecap="round" />
	<path d="M 73.4 70.109 H 65.6 c -2.168 0 -3.933 -1.765 -3.933 -3.933 c 0 -1.78 1.202 -3.343 2.923 -3.801 l 7.802 -2.07 c 1.188 -0.318 2.431 -0.067 3.406 0.684 s 1.535 1.887 1.535 3.117 v 2.07 C 77.333 68.345 75.568 70.109 73.4 70.109 z M 73.405 62.173 c -0.166 0 -0.334 0.022 -0.5 0.066 l -7.802 2.07 c -0.846 0.225 -1.437 0.992 -1.437 1.867 c 0 1.065 0.867 1.933 1.933 1.933 H 73.4 c 1.065 0 1.933 -0.867 1.933 -1.933 v -2.07 c 0 -0.604 -0.275 -1.163 -0.755 -1.531 C 74.235 62.311 73.825 62.173 73.405 62.173 z" style="stroke: none; stroke-width: 1; stroke-dasharray: none; stroke-linecap: butt; stroke-linejoin: miter; stroke-miterlimit: 10; fill: rgb(0,0,0); fill-rule: nonzero; opacity: 1;" transform=" matrix(1 0 0 1 0 0) " stroke-linecap="round" />
	<path d="M 51.698 25.162 H 38.302 c -2.961 0 -5.383 -2.422 -5.383 -5.383 V 6.383 C 32.919 3.422 35.342 1 38.302 1 h 13.395 c 2.961 0 5.383 2.422 5.383 5.383 v 13.395 C 57.081 22.739 54.658 25.162 51.698 25.162 z" style="stroke: none; stroke-width: 1; stroke-dasharray: none; stroke-linecap: butt; stroke-linejoin: miter; stroke-miterlimit: 10; fill: rgb(255,203,36); fill-rule: nonzero; opacity: 1;" transform=" matrix(1 0 0 1 0 0) " stroke-linecap="round" />
	<path d="M 51.697 26.162 H 38.302 c -3.52 0 -6.383 -2.863 -6.383 -6.383 V 6.383 c 0 -3.52 2.864 -6.383 6.383 -6.383 h 13.395 c 3.521 0 6.384 2.864 6.384 6.383 v 13.396 C 58.081 23.298 55.218 26.162 51.697 26.162 z M 38.302 2 c -2.417 0 -4.383 1.966 -4.383 4.383 v 13.396 c 0 2.417 1.966 4.383 4.383 4.383 h 13.395 c 2.417 0 4.384 -1.966 4.384 -4.383 V 6.383 C 56.081 3.966 54.114 2 51.697 2 H 38.302 z" style="stroke: none; stroke-width: 1; stroke-dasharray: none; stroke-linecap: butt; stroke-linejoin: miter; stroke-miterlimit: 10; fill: rgb(0,0,0); fill-rule: nonzero; opacity: 1;" transform=" matrix(1 0 0 1 0 0) " stroke-linecap="round" />
	<path d="M 45.843 15.492 h -4.586 V 6.701 h 4.586 c 2.319 0 4.205 1.886 4.205 4.205 v 0.382 C 50.048 13.606 48.162 15.492 45.843 15.492 z M 43.257 13.492 h 2.586 c 1.215 0 2.205 -0.989 2.205 -2.204 v -0.382 c 0 -1.216 -0.989 -2.205 -2.205 -2.205 h -2.586 V 13.492 z" style="stroke: none; stroke-width: 1; stroke-dasharray: none; stroke-linecap: butt; stroke-linejoin: miter; stroke-miterlimit: 10; fill: rgb(0,0,0); fill-rule: nonzero; opacity: 1;" transform=" matrix(1 0 0 1 0 0) " stroke-linecap="round" />
	<path d="M 42.257 20.543 c -0.552 0 -1 -0.448 -1 -1 v -5.052 c 0 -0.552 0.448 -1 1 -1 s 1 0.448 1 1 v 5.052 C 43.257 20.096 42.81 20.543 42.257 20.543 z" style="stroke: none; stroke-width: 1; stroke-dasharray: none; stroke-linecap: butt; stroke-linejoin: miter; stroke-miterlimit: 10; fill: rgb(0,0,0); fill-rule: nonzero; opacity: 1;" transform=" matrix(1 0 0 1 0 0) " stroke-linecap="round" />
</g>
</svg>